<svg width="50" height="50" viewBox="0 0 50 50" fill="none" xmlns="http://www.w3.org/2000/svg">
<path d="M49.2192 0H46.875V0.746667C43.6116 1.47667 43.1425 4.50583 42.9583 5.66333C42.8708 6.21083 42.6933 7.28167 42.4733 8.59333H1.65636C0.0413533 8.59333 -0.139481 10.1025 0.0713535 10.9375L4.85972 32.0767C5.06972 32.9117 5.95389 33.5933 6.82056 33.5933H42.6075C43.4691 33.5933 44.1716 34.2942 44.1716 35.1558C44.1716 36.0175 43.4691 36.7183 42.6075 36.7183H3.54554C3.13114 36.7183 2.73371 36.883 2.44068 37.176C2.14765 37.469 1.98303 37.8664 1.98303 38.2808C1.98303 38.6952 2.14765 39.0927 2.44068 39.3857C2.73371 39.6787 3.13114 39.8433 3.54554 39.8433H5.57056C4.5928 40.3831 3.7777 41.1753 3.21019 42.1372C2.64267 43.0991 2.34351 44.1956 2.34387 45.3125H3.90638C3.90638 47.9 6.00639 50 8.59391 50C11.1814 50 13.2814 47.9 13.2814 45.3125H14.8439C14.8441 44.1956 14.5448 43.099 13.9772 42.1371C13.4095 41.1752 12.5943 40.3831 11.6164 39.8433H33.6949C32.717 40.3831 31.9018 41.1752 31.3342 42.1371C30.7665 43.099 30.4672 44.1956 30.4674 45.3125H32.0299C32.053 46.5406 32.5572 47.7106 33.4339 48.5709C34.3106 49.4313 35.4899 49.9133 36.7183 49.9133C37.9466 49.9133 39.1259 49.4313 40.0026 48.5709C40.8793 47.7106 41.3835 46.5406 41.4066 45.3125H42.9691C42.9692 44.1957 42.6699 43.0993 42.1025 42.1374C41.535 41.1755 40.72 40.3833 39.7424 39.8433H42.6091C43.8521 39.8427 45.044 39.3486 45.923 38.4697C46.8019 37.5907 47.296 36.3988 47.2966 35.1558C47.2965 34.5402 47.1752 33.9305 46.9394 33.3617C46.7037 32.793 46.3583 32.2762 45.9229 31.8409C45.4874 31.4056 44.9705 31.0604 44.4017 30.8249C43.8328 30.5894 43.2231 30.4682 42.6075 30.4683H42.0266L44.025 18.0433C44.5816 14.7617 45.7816 7.6725 46.0633 5.90917C46.205 5.01833 46.3425 4.3925 46.875 4.04167V4.68667H49.2192C49.4259 4.68601 49.624 4.60365 49.7703 4.45753C49.9165 4.31142 49.9991 4.11341 50 3.90667V0.781667C49.9996 0.574635 49.9172 0.376196 49.7709 0.229724C49.6245 0.0832526 49.4262 0.000660274 49.2192 0ZM8.59391 47.6567C7.97239 47.656 7.37653 47.4088 6.93705 46.9693C6.49757 46.5299 6.25039 45.934 6.24973 45.3125H10.9373C10.9366 45.9339 10.6895 46.5296 10.2502 46.9691C9.81093 47.4085 9.21527 47.6558 8.59391 47.6567ZM36.7191 47.6567C36.0974 47.6562 35.5013 47.4091 35.0617 46.9696C34.622 46.5301 34.3747 45.9342 34.3741 45.3125H39.0633C39.0622 45.9339 38.8148 46.5295 38.3755 46.9689C37.9361 47.4082 37.3405 47.6556 36.7191 47.6567ZM34.7966 12.495C34.8241 12.2832 34.9267 12.0883 35.0857 11.9458C35.2448 11.8033 35.4497 11.7225 35.6632 11.7183H40.6108C41.0408 11.7183 41.3399 12.065 41.2724 12.4908L40.7824 15.6333C40.7174 16.0583 40.3099 16.4058 39.8791 16.4058H35.1599C35.0605 16.4085 34.9618 16.3895 34.8704 16.3504C34.779 16.3112 34.6972 16.2527 34.6306 16.1789C34.564 16.1051 34.5142 16.0177 34.4846 15.9228C34.455 15.8279 34.4463 15.7277 34.4591 15.6292L34.7966 12.495ZM33.9557 20.3075C33.9837 20.0959 34.0865 19.9013 34.2454 19.7589C34.4044 19.6164 34.609 19.5356 34.8224 19.5308H39.3916C39.8224 19.5308 40.1208 19.8775 40.0558 20.3033L39.6866 22.665C39.6208 23.09 39.2141 23.4375 38.7833 23.4375H34.4024C34.3031 23.4398 34.2045 23.4207 34.1132 23.3815C34.022 23.3422 33.9403 23.2837 33.8738 23.2099C33.8073 23.1362 33.7574 23.049 33.7277 22.9542C33.698 22.8594 33.6891 22.7594 33.7016 22.6608L33.9557 20.3075ZM4.05471 15.6475L3.26304 12.4767C3.15971 12.0583 3.42804 11.7183 3.85888 11.7183H9.74141C10.1731 11.7183 10.5623 12.0675 10.6081 12.495L10.9448 15.63C10.9572 15.7285 10.9483 15.8285 10.9187 15.9232C10.889 16.0179 10.8392 16.1051 10.7728 16.1788C10.7063 16.2525 10.6248 16.311 10.5336 16.3504C10.4425 16.3897 10.344 16.4089 10.2448 16.4067H5.02722C4.59722 16.4067 4.15888 16.0642 4.05471 15.6475ZM6.78056 23.4375C6.35056 23.4375 5.91222 23.0958 5.80889 22.6792L5.21222 20.29C5.10805 19.8717 5.37472 19.5317 5.80556 19.5317H10.5798C11.0106 19.5317 11.4006 19.8808 11.4464 20.3083L11.6998 22.6617C11.7124 22.7602 11.7036 22.8602 11.674 22.955C11.6444 23.0497 11.5946 23.137 11.5281 23.2108C11.4616 23.2845 11.38 23.343 11.2888 23.3823C11.1976 23.4216 11.099 23.4407 10.9998 23.4383H6.78056V23.4375ZM11.7548 30.4692H8.53391C8.1014 30.4692 7.66557 30.1275 7.5614 29.7108L6.96473 27.3217C6.8614 26.9033 7.12806 26.5633 7.55973 26.5633H11.3348C11.7656 26.5633 12.1556 26.9125 12.2031 27.34L12.4548 29.6933C12.4674 29.7918 12.4586 29.8918 12.429 29.9865C12.3994 30.0813 12.3496 30.1685 12.2831 30.2422C12.2166 30.3159 12.135 30.3743 12.0438 30.4135C11.9526 30.4527 11.854 30.4717 11.7548 30.4692ZM21.3315 29.6875C21.3306 29.8948 21.2477 30.0934 21.101 30.2398C20.9542 30.3863 20.7555 30.4687 20.5481 30.4692H16.4723C16.2589 30.4648 16.0542 30.384 15.8953 30.2414C15.7364 30.0989 15.6339 29.9042 15.6065 29.6925L15.3531 27.3392C15.3402 27.2407 15.3488 27.1406 15.3782 27.0458C15.4077 26.9509 15.4574 26.8636 15.5238 26.7898C15.5903 26.716 15.6719 26.6575 15.7631 26.6182C15.8544 26.579 15.953 26.56 16.0523 26.5625H20.5481C20.7556 26.5625 20.9546 26.6448 21.1015 26.7913C21.2483 26.9379 21.331 27.1367 21.3315 27.3442V29.6875ZM21.3315 22.6567C21.3306 22.864 21.2477 23.0626 21.101 23.209C20.9542 23.3555 20.7555 23.4379 20.5481 23.4383H15.7165C15.2865 23.4383 14.8981 23.0892 14.8498 22.6617L14.5981 20.3083C14.5853 20.2099 14.594 20.1099 14.6235 20.0151C14.6531 19.9203 14.7027 19.833 14.7691 19.7593C14.8356 19.6855 14.9171 19.627 15.0083 19.5877C15.0995 19.5484 15.198 19.5293 15.2973 19.5317H20.5481C20.7556 19.5317 20.9546 19.614 21.1015 19.7605C21.2483 19.9071 21.331 20.1059 21.3315 20.3133V22.6567ZM21.3315 15.625C21.3306 15.8323 21.2477 16.0309 21.101 16.1773C20.9542 16.3238 20.7555 16.4062 20.5481 16.4067H14.9631C14.7496 16.4025 14.5447 16.3217 14.3856 16.1792C14.2266 16.0367 14.1239 15.8418 14.0964 15.63L13.7598 12.495C13.7471 12.3965 13.7559 12.2965 13.7856 12.2017C13.8152 12.1069 13.8649 12.0197 13.9314 11.9459C13.9979 11.8722 14.0795 11.8136 14.1707 11.7744C14.2619 11.7351 14.3605 11.716 14.4598 11.7183H20.549C20.7564 11.7183 20.9554 11.8006 21.1023 11.9472C21.2492 12.0937 21.3319 12.2925 21.3323 12.5V15.625H21.3315ZM29.7974 29.6925C29.7697 29.9042 29.667 30.099 29.508 30.2415C29.349 30.384 29.1442 30.4648 28.9307 30.4692H25.2473C25.0401 30.4687 24.8414 30.3863 24.6948 30.2398C24.5482 30.0933 24.4655 29.8948 24.4648 29.6875V27.3433C24.4653 27.136 24.5479 26.9373 24.6946 26.7908C24.8412 26.6443 25.04 26.5619 25.2473 26.5617H29.3507C29.7807 26.5617 30.0974 26.9108 30.0507 27.3383L29.7974 29.6925ZM30.5524 22.6608C30.5247 22.8726 30.4221 23.0673 30.263 23.2098C30.104 23.3523 29.8992 23.4331 29.6857 23.4375H25.2473C25.0401 23.4371 24.8414 23.3546 24.6948 23.2081C24.5482 23.0616 24.4655 22.8631 24.4648 22.6558V20.3117C24.4653 20.1043 24.5479 19.9057 24.6946 19.7591C24.8412 19.6126 25.04 19.5302 25.2473 19.53H30.1057C30.5365 19.53 30.8524 19.8792 30.8049 20.3067L30.5524 22.6608ZM31.3074 15.63C31.2797 15.8417 31.1771 16.0365 31.018 16.179C30.859 16.3215 30.6542 16.4023 30.4407 16.4067H25.2473C25.0401 16.4062 24.8414 16.3238 24.6948 16.1773C24.5482 16.0308 24.4655 15.8323 24.4648 15.625V12.5C24.4653 12.2927 24.5479 12.094 24.6946 11.9475C24.8412 11.801 25.04 11.7186 25.2473 11.7183H30.9449C31.3757 11.7183 31.6915 12.0675 31.6457 12.495L31.3074 15.63ZM37.3341 30.4692V30.4633L37.3274 30.4692H33.6474C33.6232 30.4692 33.6024 30.4575 33.5782 30.4542C33.5741 30.4258 33.5741 30.3975 33.5691 30.3675L33.5324 30.4442C33.5426 30.4469 33.5529 30.4491 33.5632 30.4508C33.1791 30.4067 32.9041 30.0892 32.9482 29.6925L33.1999 27.3392C33.2279 27.1276 33.3306 26.933 33.4896 26.7905C33.6485 26.6481 33.8532 26.5672 34.0666 26.5625H38.2966C38.7274 26.5625 39.0241 26.9092 38.9591 27.335L38.5899 29.6967C38.5258 30.1217 38.1191 30.4692 37.6883 30.4692H37.3341Z" fill="#404040"/>
</svg>
