<svg width="25" height="25" viewBox="0 0 25 25" fill="none" xmlns="http://www.w3.org/2000/svg">
<path fill-rule="evenodd" clip-rule="evenodd" d="M24.6941 0.30599C24.7911 0.402739 24.8681 0.517674 24.9206 0.64421C24.9731 0.770746 25.0001 0.906398 25.0001 1.0434C25.0001 1.18039 24.9731 1.31605 24.9206 1.44258C24.8681 1.56912 24.7911 1.68405 24.6941 1.7808L1.78075 24.6946C1.58518 24.8901 1.31993 25 1.04335 25C0.766775 25 0.501526 24.8901 0.305957 24.6946C0.110388 24.499 0.000518799 24.2337 0.000518799 23.9572C0.000518799 23.6806 0.110388 23.4153 0.305957 23.2197L23.2193 0.30599C23.3161 0.208995 23.431 0.132041 23.5576 0.0795343C23.6841 0.0270275 23.8197 0 23.9567 0C24.0937 0 24.2294 0.0270275 24.3559 0.0795343C24.4824 0.132041 24.5974 0.208995 24.6941 0.30599V0.30599Z" fill="#404040"/>
<path fill-rule="evenodd" clip-rule="evenodd" d="M0.305985 0.30599C0.208992 0.402739 0.132039 0.517674 0.079533 0.64421C0.0270271 0.770746 0 0.906398 0 1.0434C0 1.18039 0.0270271 1.31605 0.079533 1.44258C0.132039 1.56912 0.208992 1.68405 0.305985 1.7808L23.2194 24.6946C23.4149 24.8901 23.6802 25 23.9568 25C24.2333 25 24.4986 24.8901 24.6942 24.6946C24.8897 24.499 24.9996 24.2337 24.9996 23.9572C24.9996 23.6806 24.8897 23.4153 24.6942 23.2197L1.78077 0.30599C1.68403 0.208995 1.56909 0.132041 1.44256 0.0795343C1.31602 0.0270275 1.18037 0 1.04338 0C0.906384 0 0.770734 0.0270275 0.6442 0.0795343C0.517665 0.132041 0.402733 0.208995 0.305985 0.30599V0.30599Z" fill="#404040"/>
</svg>
