<svg width="317" height="65" viewBox="0 0 317 65" fill="none" xmlns="http://www.w3.org/2000/svg">
<path d="M212.342 24.8875C212.342 20.4402 213.304 16.4847 215.228 13.021C217.152 9.51454 219.825 6.79915 223.246 4.87486C226.71 2.90781 230.622 1.92429 234.984 1.92429C240.329 1.92429 244.905 3.33543 248.711 6.15772C252.517 8.98001 255.061 12.8286 256.344 17.7035H244.285C243.387 15.8219 242.104 14.3894 240.436 13.4059C238.811 12.4224 236.951 11.9306 234.856 11.9306C231.478 11.9306 228.741 13.1065 226.646 15.4585C224.55 17.8104 223.503 20.9534 223.503 24.8875C223.503 28.8216 224.55 31.9646 226.646 34.3165C228.741 36.6684 231.478 37.8444 234.856 37.8444C236.951 37.8444 238.811 37.3526 240.436 36.3691C242.104 35.3855 243.387 33.953 244.285 32.0715H256.344C255.061 36.9464 252.517 40.7949 248.711 43.6172C244.905 46.3967 240.329 47.7865 234.984 47.7865C230.622 47.7865 226.71 46.8244 223.246 44.9001C219.825 42.933 217.152 40.2176 215.228 36.7539C213.304 33.2902 212.342 29.3347 212.342 24.8875Z" fill="#404040"/>
<path d="M274.029 0V47.4658H263.061V0H274.029Z" fill="#404040"/>
<path d="M298.27 47.9789C294.764 47.9789 291.599 47.2306 288.777 45.7339C285.998 44.2373 283.795 42.0992 282.17 39.3196C280.588 36.5401 279.797 33.2902 279.797 29.5699C279.797 25.8924 280.61 22.6638 282.235 19.8843C283.859 17.062 286.083 14.9025 288.905 13.4059C291.728 11.9092 294.892 11.1609 298.399 11.1609C301.905 11.1609 305.069 11.9092 307.892 13.4059C310.714 14.9025 312.938 17.062 314.563 19.8843C316.188 22.6638 317 25.8924 317 29.5699C317 33.2474 316.166 36.4973 314.498 39.3196C312.873 42.0992 310.628 44.2373 307.763 45.7339C304.941 47.2306 301.777 47.9789 298.27 47.9789ZM298.27 38.4858C300.366 38.4858 302.14 37.7161 303.594 36.1766C305.091 34.6372 305.839 32.435 305.839 29.5699C305.839 26.7049 305.112 24.5026 303.658 22.9632C302.247 21.4238 300.494 20.654 298.399 20.654C296.26 20.654 294.486 21.4238 293.075 22.9632C291.664 24.4599 290.958 26.6621 290.958 29.5699C290.958 32.435 291.642 34.6372 293.011 36.1766C294.422 37.7161 296.175 38.4858 298.27 38.4858Z" fill="#404040"/>
<path d="M17.5752 47.9148C14.2825 47.9148 11.3319 47.3803 8.72344 46.3112C6.11496 45.2422 4.01963 43.66 2.43743 41.5647C0.898001 39.4693 0.085524 36.9464 0 33.9958H11.674C11.8451 35.6635 12.4224 36.9464 13.4059 37.8444C14.3894 38.6996 15.6723 39.1272 17.2545 39.1272C18.8794 39.1272 20.1623 38.7638 21.103 38.0368C22.0438 37.2671 22.5142 36.2194 22.5142 34.8938C22.5142 33.782 22.1293 32.8626 21.3596 32.1356C20.6327 31.4087 19.7133 30.81 18.6015 30.3396C17.5324 29.8693 15.993 29.3347 13.9832 28.7361C11.0754 27.8381 8.70206 26.9401 6.8633 26.0421C5.02453 25.1441 3.44234 23.8184 2.11672 22.0652C0.791097 20.312 0.128286 18.0242 0.128286 15.2019C0.128286 11.0112 1.64634 7.73994 4.68244 5.38803C7.71854 2.99336 11.674 1.79602 16.5489 1.79602C21.5093 1.79602 25.5075 2.99336 28.5436 5.38803C31.5797 7.73994 33.2047 11.0326 33.4185 15.266H21.552C21.4665 13.8121 20.932 12.6789 19.9485 11.8665C18.9649 11.0112 17.7035 10.5836 16.164 10.5836C14.8384 10.5836 13.7694 10.9471 12.9569 11.674C12.1444 12.3582 11.7382 13.3631 11.7382 14.6888C11.7382 16.1427 12.4224 17.2759 13.7907 18.0883C15.1591 18.9008 17.2972 19.7774 20.205 20.7182C23.1129 21.7017 25.4648 22.6425 27.2608 23.5405C29.0995 24.4385 30.6817 25.7427 32.0073 27.4532C33.333 29.1637 33.9958 31.3659 33.9958 34.0599C33.9958 36.6257 33.333 38.9562 32.0073 41.0515C30.7245 43.1469 28.843 44.8146 26.3628 46.0547C23.8826 47.2948 20.9534 47.9148 17.5752 47.9148Z" fill="#611F8A"/>
<path d="M51.7143 16.7413C52.7833 15.0736 54.2586 13.7266 56.1401 12.7003C58.0217 11.674 60.2239 11.1609 62.7469 11.1609C65.6974 11.1609 68.3701 11.9092 70.7647 13.4059C73.1594 14.9026 75.0409 17.0407 76.4093 19.8202C77.8205 22.5997 78.526 25.8283 78.526 29.5058C78.526 33.1833 77.8205 36.4332 76.4093 39.2555C75.0409 42.035 73.1594 44.1945 70.7647 45.734C68.3701 47.2306 65.6974 47.979 62.7469 47.979C60.2667 47.979 58.0644 47.4658 56.1401 46.4395C54.2586 45.4132 52.7833 44.0876 51.7143 42.4627V64.5278H40.7458V11.674H51.7143V16.7413ZM67.3652 29.5058C67.3652 26.769 66.5954 24.6309 65.056 23.0915C63.5593 21.5093 61.6992 20.7182 59.4756 20.7182C57.2947 20.7182 55.4346 21.5093 53.8951 23.0915C52.3985 24.6737 51.6501 26.8332 51.6501 29.5699C51.6501 32.3067 52.3985 34.4662 53.8951 36.0484C55.4346 37.6306 57.2947 38.4217 59.4756 38.4217C61.6564 38.4217 63.5166 37.6306 65.056 36.0484C66.5954 34.4234 67.3652 32.2426 67.3652 29.5058Z" fill="#611F8A"/>
<path d="M136.027 17.6393C137.31 15.6723 138.914 14.1329 140.838 13.021C142.762 11.8665 144.9 11.2892 147.252 11.2892V22.8991H144.237C141.501 22.8991 139.448 23.4977 138.08 24.6951C136.711 25.8496 136.027 27.9022 136.027 30.8528V47.4658H125.059V11.674H136.027V17.6393Z" fill="#611F8A"/>
<path d="M172.443 38.1651V47.4658H166.863C162.886 47.4658 159.786 46.5037 157.562 44.5794C155.339 42.6123 154.227 39.4266 154.227 35.0221V20.7823H149.865V11.674H154.227V2.95059H165.195V11.674H172.379V20.7823H165.195V35.1504C165.195 36.2194 165.452 36.9891 165.965 37.4595C166.478 37.9299 167.333 38.1651 168.531 38.1651H172.443Z" fill="#611F8A"/>
<path d="M193.113 47.979C189.992 47.979 187.212 47.4444 184.775 46.3754C182.337 45.3063 180.413 43.8524 179.002 42.0137C177.591 40.1321 176.8 38.0368 176.629 35.7277H187.469C187.597 36.9678 188.174 37.9727 189.201 38.7424C190.227 39.5121 191.488 39.8969 192.985 39.8969C194.354 39.8969 195.401 39.6404 196.128 39.1272C196.898 38.5713 197.283 37.8658 197.283 37.0105C197.283 35.9842 196.748 35.2359 195.679 34.7655C194.61 34.2524 192.878 33.6965 190.484 33.0978C187.918 32.4991 185.78 31.8791 184.069 31.2376C182.359 30.5535 180.884 29.5058 179.643 28.0946C178.403 26.6407 177.783 24.6951 177.783 22.2576C177.783 20.2051 178.339 18.3449 179.451 16.6772C180.606 14.9667 182.273 13.6197 184.454 12.6362C186.678 11.6527 189.308 11.1609 192.344 11.1609C196.834 11.1609 200.362 12.2727 202.927 14.4963C205.536 16.72 207.032 19.6705 207.417 23.3481H197.283C197.112 22.108 196.556 21.1244 195.615 20.3975C194.717 19.6705 193.52 19.3071 192.023 19.3071C190.74 19.3071 189.757 19.5636 189.072 20.0768C188.388 20.5471 188.046 21.21 188.046 22.0652C188.046 23.0915 188.581 23.8612 189.65 24.3743C190.762 24.8875 192.472 25.4006 194.781 25.9138C197.432 26.598 199.592 27.2822 201.26 27.9664C202.927 28.6078 204.381 29.6768 205.621 31.1735C206.904 32.6274 207.567 34.5945 207.61 37.0747C207.61 39.17 207.011 41.0515 205.814 42.7192C204.659 44.3442 202.97 45.6271 200.746 46.5678C198.566 47.5086 196.021 47.979 193.113 47.979Z" fill="#611F8A"/>
<path d="M101.538 47.4658C111.871 47.4658 120.247 39.0898 120.247 28.7575C120.247 22.5126 117.187 16.9823 112.485 13.5841C114.299 23.0747 111.196 30.4642 106.468 35.7014C102.096 40.5451 96.3309 43.5542 91.7804 44.7226C94.6214 46.4627 97.9627 47.4658 101.538 47.4658Z" fill="#611F8A"/>
<path d="M90.2461 43.6748C94.6577 42.8377 100.853 39.8813 105.442 34.7977C110.129 29.6056 113.138 22.2026 110.854 12.53C108.111 10.9518 104.93 10.0491 101.538 10.0491C91.206 10.0491 82.8299 18.4251 82.8299 28.7575C82.8299 34.8479 85.7403 40.2586 90.2461 43.6748Z" fill="#611F8A"/>
</svg>
