<svg width="20" height="16" viewBox="0 0 20 16" fill="none" xmlns="http://www.w3.org/2000/svg">
<path d="M4.28824 0.293413L0.293412 4.29324L0.209416 4.38824C0.0602991 4.58075 -0.013445 4.82106 0.00201978 5.06408C0.0174846 5.3071 0.121095 5.53612 0.293412 5.70818L0.388408 5.79118C0.580921 5.9403 0.821232 6.01404 1.06425 5.99857C1.30727 5.98311 1.53629 5.8795 1.70835 5.70718L4.00025 3.41028V14.9998L4.00725 15.1168C4.03568 15.3602 4.15251 15.5847 4.33557 15.7477C4.51862 15.9106 4.75514 16.0007 5.00021 16.0007L5.11721 15.9937C5.36062 15.9651 5.58502 15.848 5.7478 15.6648C5.91057 15.4815 6.00038 15.2449 6.00017 14.9998V3.41728L8.29307 5.70718L8.38807 5.79118C8.58907 5.94849 8.84263 6.02298 9.09678 5.99939C9.35094 5.97579 9.58645 5.8559 9.75506 5.66427C9.92368 5.47265 10.0126 5.2238 10.0037 4.96871C9.99476 4.71362 9.88862 4.4716 9.70701 4.29224L5.70118 0.292412L5.60719 0.209416C5.41467 0.0602993 5.17436 -0.013445 4.93134 0.00201978C4.68832 0.0174846 4.4593 0.121096 4.28724 0.293413H4.28824ZM14.9998 0.00342448L14.8828 0.0104246C14.6395 0.0390806 14.4153 0.156011 14.2525 0.339038C14.0898 0.522065 13.9999 0.758459 13.9998 1.00338V12.5829L11.7069 10.293L11.6119 10.209C11.4109 10.0535 11.1581 9.98044 10.9051 10.0046C10.6521 10.0288 10.4177 10.1485 10.2498 10.3392C10.0818 10.53 9.99279 10.7776 10.0008 11.0316C10.0088 11.2857 10.1133 11.5271 10.293 11.7069L14.2968 15.7068L14.3908 15.7908C14.5833 15.9399 14.8236 16.0136 15.0667 15.9981C15.3097 15.9827 15.5387 15.8791 15.7108 15.7068L19.7066 11.7069L19.7906 11.6119C19.9397 11.4194 20.0134 11.1791 19.998 10.9361C19.9825 10.6931 19.8789 10.464 19.7066 10.292L19.6116 10.209C19.4191 10.0599 19.1788 9.98613 18.9357 10.0016C18.6927 10.0171 18.4637 10.1207 18.2916 10.293L15.9997 12.5869V1.00338L15.9927 0.887387C15.9643 0.643965 15.8475 0.41946 15.6644 0.256503C15.4814 0.0935457 15.2449 0.00348555 14.9998 0.00342448Z" fill="#404040"/>
</svg>
